<svg width="562" height="574" viewBox="0 0 562 574" fill="none" xmlns="http://www.w3.org/2000/svg">
<path d="M63.2101 110.569C160.838 -13.2082 340.305 -34.4277 464.105 63.151C464.682 63.8229 465.26 64.4962 465.839 65.1707C507.166 113.299 554.101 167.957 559.002 236.571C562.245 281.978 560.493 327.372 551.585 366.128C542.674 404.901 526.631 436.9 501.402 455.698C478.082 473.073 460.422 492.336 444.196 510.036C442.615 511.76 441.048 513.469 439.491 515.16C421.974 534.182 405.718 550.883 385.081 561.044C379.28 561.151 371.176 562.118 361.668 563.431C357.952 563.944 354.021 564.51 349.921 565.101C343.358 566.046 336.36 567.054 329.111 568.008C305.562 571.106 279.594 573.598 258.162 571.414C206.037 566.103 154.756 546.392 110.569 511.54C-13.234 413.893 -34.4373 234.372 63.2101 110.569Z" stroke="#154360" stroke-width="2"/>
</svg>
