<svg width="702" height="713" viewBox="0 0 702 713" fill="none" xmlns="http://www.w3.org/2000/svg">
<path d="M520.517 51.9488C628.151 111.659 701 226.465 701 358.287C701 401.3 683.396 445.113 656.782 486.501C630.174 527.88 594.608 566.759 558.807 599.88C523.007 633 486.998 660.338 459.525 678.641C445.786 687.794 434.2 694.675 425.854 698.888C421.674 700.999 418.345 702.42 415.982 703.129C414.792 703.486 413.913 703.642 413.321 703.644C412.939 703.645 412.791 703.585 412.749 703.562C410.906 700.308 408.385 698.821 405.455 698.556C402.612 698.299 399.481 699.201 396.364 700.438C394.502 701.177 392.542 702.081 390.603 702.976C389.324 703.567 388.055 704.153 386.828 704.684C383.661 706.056 380.671 707.121 377.989 707.326C375.547 707.512 374.047 708.269 372.817 709.147C372.466 709.397 372.101 709.686 371.765 709.952C371.57 710.107 371.384 710.254 371.216 710.382C370.717 710.761 370.226 711.091 369.648 711.355C367.364 712.399 363.194 712.645 351.336 708.409C339.427 704.155 333.827 703.963 329.806 704.836C328.815 705.051 327.939 705.327 327.119 705.602C326.911 705.672 326.71 705.74 326.512 705.808C325.912 706.012 325.343 706.207 324.739 706.381C323.182 706.831 321.456 707.13 318.951 706.903C316.655 706.695 314.856 706.117 313.153 705.412C312.474 705.131 311.819 704.833 311.143 704.527C310.961 704.444 310.777 704.361 310.591 704.277C309.724 703.886 308.821 703.49 307.846 703.134C303.874 701.683 298.907 700.958 289.872 703.114C281.07 705.213 275.136 705.175 271.148 703.986C267.219 702.814 265.114 700.509 263.956 697.839C263.518 696.828 263.368 696.096 263.232 695.428C263.185 695.197 263.14 694.974 263.084 694.749C262.98 694.326 262.823 693.846 262.47 693.42C262.108 692.984 261.623 692.702 261.035 692.502C259.931 692.127 258.146 691.942 255.251 691.761C253.581 691.656 251.488 691.55 248.868 691.419C246.879 691.318 244.587 691.203 241.948 691.061C229.746 690.405 224.828 688.607 221.743 686.569C220.603 685.815 219.716 685.036 218.761 684.197C218.386 683.867 218 683.528 217.583 683.178C216.129 681.954 214.437 680.716 211.844 679.59C209.22 678.452 207.049 678.258 205.057 678.277C204.426 678.283 203.838 678.308 203.271 678.332C202.004 678.385 200.843 678.433 199.54 678.26C195.974 677.785 191.451 675.581 183.464 665.8C175.414 655.942 171.073 653.298 167.563 652.653C166.698 652.494 165.914 652.462 165.191 652.455C164.975 652.453 164.771 652.453 164.573 652.453C164.084 652.453 163.633 652.453 163.155 652.422C161.899 652.34 160.545 652.042 158.712 650.834C156.122 649.128 153.572 648.113 151.105 647.26C150.445 647.032 149.798 646.817 149.159 646.605C147.38 646.016 145.669 645.448 143.95 644.676C139.4 642.633 134.858 639.171 130.298 630.108C125.557 620.686 120.509 616.316 115.481 613.144C114.236 612.36 112.997 611.651 111.782 610.963C111.616 610.869 111.451 610.776 111.286 610.683C110.237 610.091 109.207 609.509 108.186 608.893C105.831 607.471 103.555 605.881 101.361 603.649C98.9997 601.246 96.2697 598.938 93.5084 596.656C93.0743 596.298 92.6394 595.94 92.205 595.582C89.8631 593.654 87.5312 591.734 85.3659 589.75C80.2112 585.028 76.2146 580.128 75.4196 574.339C73.6713 561.609 64.5655 552.91 52.9568 541.974C47.2327 536.581 44.4594 531.838 42.4932 527.192C41.689 525.292 41.0215 523.413 40.3362 521.485C40.1757 521.033 40.0142 520.578 39.8497 520.12C38.9876 517.718 38.0531 515.243 36.7784 512.652C35.1569 509.357 33.3175 505.976 31.466 502.573L31.2425 502.162C29.3118 498.614 27.3753 495.04 25.6401 491.474C22.1603 484.322 19.5515 477.317 19.4127 470.776C19.2655 463.837 17.3292 457.574 15.1222 451.522C14.6411 450.202 14.1485 448.896 13.6581 447.596C11.8836 442.89 10.1377 438.26 9.06766 433.362C8.36314 430.137 7.62788 427.276 6.91761 424.512C4.68048 415.806 2.69125 408.065 2.69134 392.971C2.6914 382.921 2.26678 377.146 1.8417 372.417C1.78496 371.786 1.72835 371.175 1.67283 370.575C1.3133 366.692 1 363.309 1 358.287C1 353.998 1.2979 350.554 1.61708 346.863C1.67577 346.185 1.73519 345.498 1.7936 344.796C2.16967 340.276 2.49775 335.188 2.30196 327.807C1.99973 316.413 3.89258 307.687 5.8814 298.518C6.42733 296.002 6.98049 293.452 7.49746 290.804C8.14345 287.495 8.01299 283.105 7.88351 278.748C7.8624 278.038 7.84132 277.328 7.82363 276.624C7.6943 271.479 7.74521 266.642 9.0225 263.363C10.2558 260.197 12.0202 257.822 13.895 255.3C14.0053 255.151 14.116 255.002 14.227 254.853C16.215 252.172 18.2676 249.299 19.6466 245.254C21.3173 240.353 23.4899 236.211 25.7377 231.925C26.3738 230.712 27.0159 229.488 27.6543 228.232C30.5385 222.557 33.2813 216.343 34.8191 207.889C36.3164 199.658 38.1151 196.128 39.9506 193.781C40.6296 192.912 41.3069 192.21 42.0306 191.459C42.3196 191.159 42.616 190.852 42.9229 190.523C43.9583 189.414 45.022 188.149 46.0663 186.328C48.7796 183.618 50.2954 181.798 51.1954 180.349C52.1328 178.84 52.3841 177.757 52.643 176.634L52.6478 176.613C52.8914 175.556 53.1546 174.414 54.0648 172.601C54.9935 170.75 56.6065 168.182 59.5834 164.333C63.7459 158.953 67.8739 155.233 71.8579 151.643C73.5616 150.107 75.239 148.596 76.8816 146.988C82.3482 141.638 87.1679 135.427 90.6089 124.229C93.9861 113.237 96.8072 110.513 99.2048 109.553C99.829 109.303 100.464 109.156 101.149 109.034C101.381 108.993 101.634 108.952 101.898 108.909C102.364 108.835 102.861 108.755 103.327 108.657C104.9 108.329 106.562 107.73 108.284 106.072C109.946 104.472 111.678 103.361 113.482 102.369C114.168 101.992 114.895 101.617 115.638 101.233C116.783 100.643 117.966 100.033 119.094 99.365C122.988 97.0609 126.834 93.766 130.308 86.4452C133.582 79.5471 137.697 76.3582 142.111 74.1271C143.798 73.2739 145.514 72.5677 147.278 71.8416C147.863 71.6006 148.454 71.3575 149.051 71.106C151.421 70.1072 153.839 68.9956 156.181 67.4227C158.754 65.6954 160.07 64.1302 161.07 62.6349C161.379 62.1727 161.643 61.7445 161.895 61.3362C162.475 60.3962 162.99 59.5613 163.838 58.6576C166.201 56.1388 171.097 53.2692 186.326 49.281C192.193 47.7445 196.452 46.6981 199.614 45.9214C200.55 45.6914 201.389 45.4851 202.146 45.2968C205.413 44.4835 207.232 43.984 208.52 43.3215C209.819 42.6533 210.565 41.8246 211.653 40.615C211.699 40.564 211.745 40.5125 211.793 40.4602C212.966 39.1571 214.683 37.2682 218.028 34.3118C224.626 28.4813 231.676 25.8335 239 24.1509C242.26 23.4018 245.559 22.8471 248.907 22.2842C249.331 22.2129 249.756 22.1414 250.182 22.0694C253.956 21.4313 257.784 20.7518 261.602 19.7459C264.825 18.8967 267.74 19.2203 270.686 19.9141C271.813 20.1797 272.924 20.494 274.065 20.8166C274.428 20.9192 274.794 21.0228 275.164 21.1258C276.683 21.5483 278.253 21.956 279.887 22.222C283.18 22.7581 286.727 22.7185 290.768 21.1357C294.787 19.5613 299.223 16.4881 304.361 11.081C309.359 5.82073 313.714 3.07109 317.641 1.83857C321.553 0.610689 325.136 0.858358 328.657 1.76495C331.239 2.42965 333.728 3.42741 336.302 4.45912C337.292 4.85636 338.296 5.25864 339.322 5.64888C342.961 7.03262 346.798 8.22323 351 8.22323C353.727 8.22323 355.216 7.45258 356.339 6.43808C356.665 6.14315 356.994 5.79183 357.278 5.48745C357.416 5.34016 357.543 5.20386 357.655 5.09026C358.041 4.69865 358.411 4.384 358.884 4.14849C359.818 3.68399 361.394 3.41209 364.691 4.083C367.981 4.75234 372.838 6.3287 380.221 9.37837C387.642 12.4441 392.75 14.1407 396.405 14.9776C400.063 15.8153 402.333 15.8084 404.045 15.4012C404.899 15.1982 405.577 14.9041 406.175 14.6138C406.363 14.5229 406.534 14.4367 406.697 14.3547C407.077 14.1638 407.412 13.9953 407.799 13.8416C408.795 13.4456 410.081 13.1802 412.567 13.6215C431.404 16.9648 449.72 21.8149 467.386 28.043C485.855 34.5545 503.615 42.5723 520.517 51.9488Z" stroke="#154360" stroke-width="2"/>
</svg>
