<svg width="256" height="24" viewBox="0 0 256 24" fill="none" xmlns="http://www.w3.org/2000/svg">
<path d="M2.67631 5.23801C67.7988 4.46896 132.921 3.69988 198.044 2.93083C216.475 2.71317 234.906 2.4955 253.337 2.27785V0.000642418C220.684 1.60351 188.253 3.90363 156.205 6.93459C148.281 7.68404 140.382 8.47693 132.509 9.3121C128.617 9.72496 123.949 9.97993 120.257 10.6492C118.501 10.9674 117.291 11.3765 117.024 12.1977C116.181 14.7904 125.163 14.4404 128.964 14.6673C136.869 15.1391 144.616 15.9287 152.203 16.9482V14.7523C149.079 15.1701 145.955 15.5879 142.831 16.0058C140.183 16.36 137.017 16.615 134.778 17.3284C131.712 18.3054 130.661 20.0208 131.955 21.5093C133.765 23.5918 138.409 23.9157 143.187 23.9987C146.756 24.0607 146.749 21.7834 143.187 21.7215C140.381 21.6728 134.896 21.2409 137.376 19.4875C138.25 18.8697 140.454 18.7168 141.981 18.5125C145.88 17.991 149.779 17.4696 153.677 16.9482C156.31 16.5961 156.308 15.1058 153.677 14.7523C147.166 13.8774 140.543 13.1696 133.789 12.6909C131.04 12.496 128.275 12.3371 125.503 12.2077C124.664 12.167 123.823 12.1308 122.981 12.099C122.958 12.6334 123.416 12.7846 124.354 12.5527C125.503 12.6385 127.522 12.2035 128.729 12.0723C142.407 10.5855 156.169 9.22772 170 8.00196C197.544 5.56086 225.357 3.65129 253.337 2.27785C256.777 2.10894 256.997 -0.0425789 253.337 0.000642418C188.214 0.769715 123.091 1.53877 57.969 2.30784C39.5381 2.5255 21.1072 2.74317 2.67631 2.96083C-0.884724 3.00288 -0.899476 5.28025 2.67631 5.23801Z" fill="#00FFA4"/>
</svg>
