<svg width="218" height="39" viewBox="0 0 218 39" fill="none" xmlns="http://www.w3.org/2000/svg">
<path d="M5.9375 38.4375C4.81771 38.4375 4.02344 38.2813 3.55469 37.9688C3.11198 37.6563 2.89063 37.2005 2.89063 36.6016C2.89063 36.0807 3.07292 35.638 3.4375 35.2735C3.80209 34.8828 4.60938 34.4922 5.85938 34.1016C7.31771 33.6589 8.69792 33.1511 10 32.5781C11.3281 31.9792 12.4089 31.3281 13.2422 30.625C14.1016 29.9219 14.5313 29.1797 14.5313 28.3984C14.5313 27.8776 14.349 27.5 13.9844 27.2656C13.6458 27.0313 13.2422 26.9141 12.7734 26.9141C12.3828 26.9141 11.8099 26.9792 11.0547 27.1094C10.3255 27.2136 9.51823 27.3568 8.63282 27.5391C7.7474 27.6953 6.88802 27.8386 6.05469 27.9688C5.2474 28.0729 4.55729 28.125 3.98438 28.125C2.63021 28.125 1.6276 27.8255 0.976563 27.2266C0.325521 26.6016 0 25.8073 0 24.8438C0 24.3229 0.273438 23.6068 0.820313 22.6953C1.36719 21.7839 2.09636 20.7813 3.00781 19.6875C3.91927 18.5938 4.9349 17.5 6.05469 16.4063C7.17448 15.3125 8.3073 14.3099 9.45313 13.3984C10.625 12.4609 11.7318 11.7188 12.7734 11.1719C13.8151 10.599 14.7005 10.3125 15.4297 10.3125C16.263 10.3125 16.9271 10.5729 17.4219 11.0938C17.9427 11.6146 18.2031 12.3177 18.2031 13.2031C18.2031 13.6198 18.1641 14.0755 18.0859 14.5703C18.0078 15.0391 17.8125 15.4688 17.5 15.8594C17.1875 16.224 16.7057 16.4844 16.0547 16.6406C15.4037 16.7969 14.5182 16.7708 13.3984 16.5625C12.513 17.2135 11.5885 17.9297 10.625 18.7109C9.68751 19.4662 8.80209 20.2604 7.96875 21.0938C7.13542 21.9011 6.44532 22.6953 5.89844 23.4766C6.86198 23.1641 7.95573 22.9167 9.17969 22.7344C10.4037 22.5261 11.6406 22.4219 12.8906 22.4219C14.401 22.4219 15.625 22.6953 16.5625 23.2422C17.526 23.763 18.2292 24.4662 18.6719 25.3516C19.1406 26.237 19.375 27.2136 19.375 28.2813C19.375 29.4792 18.9844 30.6771 18.2031 31.875C17.4219 33.0729 16.3802 34.1667 15.0781 35.1563C13.776 36.1458 12.3307 36.9401 10.7422 37.5391C9.15365 38.138 7.55209 38.4375 5.9375 38.4375Z" fill="#00FFA4"/>
<path d="M28.8068 37.7735C27.1922 37.7735 25.8901 37.2136 24.9005 36.0938C23.9109 34.9479 23.4161 33.112 23.4161 30.5859C23.4161 28.9714 23.5984 27.3568 23.963 25.7422C24.3536 24.1016 24.8875 22.5521 25.5646 21.0938C26.2677 19.6094 27.075 18.2943 27.9865 17.1484C28.924 16.0026 29.9526 15.1042 31.0724 14.4531C32.1922 13.776 33.351 13.4375 34.549 13.4375C36.5802 13.4375 38.1688 13.9844 39.3146 15.0781C40.4604 16.1719 41.0333 17.5651 41.0333 19.2578C41.0333 20.5599 40.6688 21.7448 39.9396 22.8125C39.2365 23.8542 38.2729 24.7917 37.049 25.625C35.825 26.4583 34.4578 27.2136 32.9474 27.8906C31.437 28.5677 29.8875 29.1797 28.299 29.7266C28.1688 30.6641 28.1037 31.4974 28.1037 32.2266C28.1037 32.6693 28.351 32.8906 28.8458 32.8906C30.0177 32.8906 31.2677 32.7083 32.5958 32.3438C33.95 31.9531 35.3172 31.4583 36.6974 30.8594C38.0776 30.2344 39.4057 29.5964 40.6818 28.9453C41.9578 28.2682 43.1167 27.6302 44.1583 27.0313C45.2261 26.4063 46.0985 25.9115 46.7755 25.5469C47.4787 25.1563 47.9344 24.9609 48.1427 24.9609C48.7156 24.9609 49.1323 25.1302 49.3927 25.4688C49.6531 25.8073 49.7834 26.1719 49.7834 26.5625C49.7834 26.7448 49.4318 27.1485 48.7287 27.7735C48.0516 28.3985 47.1141 29.1406 45.9162 30C44.7443 30.8333 43.4162 31.7057 41.9318 32.6172C40.4734 33.5026 38.95 34.349 37.3615 35.1563C35.799 35.9375 34.2755 36.5625 32.7912 37.0313C31.3328 37.5261 30.0047 37.7735 28.8068 37.7735ZM28.963 26.25C30.0307 25.625 31.0854 24.974 32.1271 24.2969C33.1948 23.5938 34.0802 22.8125 34.7833 21.9531C35.4865 21.0677 35.838 20.0391 35.838 18.8672C35.838 18.5287 35.7469 18.3073 35.5646 18.2031C35.3823 18.0729 35.1219 18.0078 34.7833 18.0078C33.8719 18.0078 33.0385 18.4115 32.2833 19.2188C31.5542 20.0261 30.9031 21.0677 30.3302 22.3438C29.7833 23.5938 29.3276 24.8958 28.963 26.25Z" fill="#00FFA4"/>
<path d="M54.3238 38.3985C51.98 38.3985 50.131 37.6823 48.7769 36.25C47.4488 34.7917 46.7847 32.7214 46.7847 30.0391C46.7847 28.5807 46.98 26.875 47.3706 24.9219C47.7613 22.9427 48.2691 20.8594 48.8941 18.6719C49.5451 16.4583 50.2352 14.2708 50.9644 12.1094C51.7196 9.94792 52.4618 7.94271 53.1909 6.09375C53.9201 4.24479 54.5581 2.69531 55.105 1.44531C55.5738 0.481771 56.2378 0 57.0972 0C57.6441 0 58.0868 0.169271 58.4253 0.507813C58.7899 0.846354 58.9722 1.39323 58.9722 2.14844C58.9722 2.51302 58.7899 3.30729 58.4253 4.53125C58.0607 5.75521 57.579 7.26563 56.98 9.0625C56.4071 10.8333 55.7821 12.7474 55.105 14.8047C54.454 16.862 53.829 18.9323 53.23 21.0156C52.6571 23.099 52.1883 25.0651 51.8238 26.9141C51.4592 28.737 51.2769 30.2865 51.2769 31.5625C51.2769 32.0833 51.4201 32.5 51.7066 32.8125C52.0191 33.125 52.4227 33.2813 52.9175 33.2813C53.9852 33.2813 55.079 33.086 56.1988 32.6953C57.3446 32.3047 58.4644 31.8099 59.5581 31.211C60.6779 30.612 61.7326 29.974 62.7222 29.2969C63.7118 28.6198 64.5972 27.9818 65.3784 27.3828C66.1857 26.7578 66.8368 26.263 67.3316 25.8984C67.9826 25.4037 68.4253 25.1563 68.6597 25.1563C69.5451 25.1563 69.9878 25.586 69.9878 26.4453C69.9878 26.6537 69.7274 27.0833 69.2066 27.7344C68.7639 28.3073 68.1389 29.0365 67.3316 29.9219C66.5243 30.8073 65.5868 31.7448 64.5191 32.7344C63.4774 33.6979 62.3576 34.6094 61.1597 35.4688C59.9878 36.3281 58.8159 37.0313 57.6441 37.5781C56.4722 38.125 55.3654 38.3985 54.3238 38.3985Z" fill="#00FFA4"/>
<path d="M74.5233 38.3985C72.1796 38.3985 70.3306 37.6823 68.9765 36.25C67.6483 34.7917 66.9843 32.7214 66.9843 30.0391C66.9843 28.5807 67.1796 26.875 67.5702 24.9219C67.9608 22.9427 68.4687 20.8594 69.0937 18.6719C69.7447 16.4583 70.4348 14.2708 71.164 12.1094C71.9192 9.94792 72.6614 7.94271 73.3905 6.09375C74.1197 4.24479 74.7577 2.69531 75.3046 1.44531C75.7734 0.481771 76.4374 0 77.2968 0C77.8437 0 78.2864 0.169271 78.6249 0.507813C78.9895 0.846354 79.1718 1.39323 79.1718 2.14844C79.1718 2.51302 78.9895 3.30729 78.6249 4.53125C78.2603 5.75521 77.7786 7.26563 77.1796 9.0625C76.6067 10.8333 75.9817 12.7474 75.3046 14.8047C74.6536 16.862 74.0286 18.9323 73.4296 21.0156C72.8567 23.099 72.3879 25.0651 72.0233 26.9141C71.6588 28.737 71.4765 30.2865 71.4765 31.5625C71.4765 32.0833 71.6197 32.5 71.9062 32.8125C72.2187 33.125 72.6223 33.2813 73.1171 33.2813C74.1848 33.2813 75.2786 33.086 76.3983 32.6953C77.5442 32.3047 78.664 31.8099 79.7577 31.211C80.8775 30.612 81.9322 29.974 82.9218 29.2969C83.9114 28.6198 84.7968 27.9818 85.578 27.3828C86.3853 26.7578 87.0364 26.263 87.5312 25.8984C88.1822 25.4037 88.6249 25.1563 88.8593 25.1563C89.7447 25.1563 90.1874 25.586 90.1874 26.4453C90.1874 26.6537 89.927 27.0833 89.4062 27.7344C88.9635 28.3073 88.3385 29.0365 87.5312 29.9219C86.7239 30.8073 85.7864 31.7448 84.7187 32.7344C83.677 33.6979 82.5572 34.6094 81.3593 35.4688C80.1874 36.3281 79.0155 37.0313 77.8437 37.5781C76.6718 38.125 75.565 38.3985 74.5233 38.3985Z" fill="#00FFA4"/>
<path d="M96.6947 37.8952C95.1561 37.8952 93.7891 37.8443 92.5939 37.7426C91.4113 37.6536 90.3686 37.5137 89.4658 37.3229L90.0762 32.3829C91.6783 32.5864 93.0262 32.739 94.1198 32.8407C95.2133 32.9424 96.0716 32.9933 96.6947 32.9933C98.3604 32.9933 99.5621 32.8788 100.3 32.6499C101.05 32.4083 101.425 32.0269 101.425 31.5055C101.425 31.2004 101.33 30.9588 101.139 30.7807C100.948 30.6027 100.643 30.4501 100.223 30.323L93.8337 28.4156C92.4858 28.0087 91.4685 27.4047 90.7819 26.6036C90.108 25.8026 89.771 24.7217 89.771 23.3611C89.771 21.1868 90.6865 19.5719 92.5176 18.5165C94.3486 17.4484 97.127 16.9143 100.853 16.9143C101.717 16.9143 102.614 16.9461 103.542 17.0097C104.483 17.0733 105.475 17.1686 106.518 17.2958L105.964 22.0832C104.807 21.9815 103.796 21.9116 102.932 21.8734C102.067 21.8353 101.336 21.8162 100.738 21.8162C98.8182 21.8162 97.4195 21.9306 96.5421 22.1595C95.6774 22.3757 95.2451 22.7381 95.2451 23.2467C95.2451 23.5646 95.3341 23.8126 95.5121 23.9906C95.7029 24.1559 95.9953 24.2957 96.3895 24.4102L101.864 25.9742C103.606 26.4701 104.903 27.1631 105.755 28.0532C106.619 28.9306 107.052 30.0877 107.052 31.5246C107.052 33.6736 106.2 35.2757 104.496 36.3311C102.792 37.3738 100.191 37.8952 96.6947 37.8952Z" fill="#154360"/>
<path d="M120.366 37.8952C117.454 37.8952 115.197 36.9796 113.595 35.1486C111.992 33.3175 111.191 30.7362 111.191 27.4047C111.191 24.0605 111.992 21.4792 113.595 19.6609C115.197 17.8298 117.454 16.9143 120.366 16.9143C123.278 16.9143 125.535 17.8298 127.137 19.6609C128.739 21.4792 129.54 24.0605 129.54 27.4047C129.54 30.7362 128.739 33.3175 127.137 35.1486C125.535 36.9796 123.278 37.8952 120.366 37.8952ZM120.385 32.9933C121.555 32.9933 122.457 32.5101 123.093 31.5437C123.742 30.5646 124.066 29.1849 124.066 27.4047C124.066 25.6118 123.742 24.2322 123.093 23.2658C122.457 22.2994 121.548 21.8162 120.366 21.8162C119.196 21.8162 118.287 22.2994 117.638 23.2658C116.99 24.2322 116.665 25.6118 116.665 27.4047C116.665 29.1849 116.99 30.5646 117.638 31.5437C118.287 32.5101 119.202 32.9933 120.385 32.9933Z" fill="#154360"/>
<path d="M139.535 37.8952C137.615 37.8952 136.127 37.2657 135.072 36.0069C134.017 34.7353 133.489 32.9488 133.489 30.6472V17.2958H138.658V29.3693C138.658 30.5264 138.919 31.4229 139.44 32.0587C139.974 32.6817 140.705 32.9933 141.633 32.9933C142.841 32.9933 143.751 32.5291 144.361 31.6009C144.984 30.6599 145.295 29.0896 145.295 26.8897L146.325 33.6227H144.761C144.444 34.996 143.827 36.0514 142.911 36.7889C141.996 37.5264 140.87 37.8952 139.535 37.8952ZM145.639 37.7044L145.295 32.8597V29.3121H150.464V32.8979L153.249 33.3175V37.5137L145.639 37.7044ZM145.295 31.7916V17.2958H150.464V30.6472L145.295 31.7916Z" fill="#154360"/>
<path d="M163.759 28.8162L162.577 21.8543H164.312C164.516 18.561 166.239 16.9143 169.481 16.9143C171.401 16.9143 172.87 17.62 173.887 19.0315C174.917 20.4429 175.432 22.4774 175.432 25.135H170.302C170.302 23.9397 170.079 23.0814 169.634 22.5601C169.202 22.0387 168.496 21.778 167.517 21.778C166.258 21.778 165.317 22.3884 164.694 23.6091C164.071 24.8298 163.759 26.5655 163.759 28.8162ZM154.337 37.5137V33.0886H168.49V37.5137H154.337ZM158.61 37.5137V17.2958H162.996L163.759 23.0941V37.5137H158.61ZM155.1 21.7208V17.2958H162.729L163.111 21.7208H155.1Z" fill="#154360"/>
<path d="M189.052 37.8952C185.377 37.8952 182.535 36.9923 180.526 35.1867C178.517 33.3684 177.512 30.7617 177.512 27.3666C177.512 24.0605 178.428 21.4919 180.259 19.6609C182.09 17.8298 184.703 16.9143 188.098 16.9143C190.183 16.9143 191.97 17.3212 193.458 18.135C194.958 18.9488 196.02 20.0996 196.643 21.5873L192.904 24.5628C192.345 23.6854 191.633 23.0115 190.768 22.541C189.916 22.0578 188.975 21.8162 187.945 21.8162C186.381 21.8162 185.161 22.2803 184.283 23.2086C183.419 24.1368 182.986 25.4592 182.986 27.1758C182.986 29.0705 183.552 30.5137 184.684 31.5055C185.815 32.4974 187.424 32.9933 189.509 32.9933C190.425 32.9933 191.334 32.9488 192.237 32.8597C193.152 32.7707 194.042 32.6499 194.907 32.4974L195.441 37.3229C194.411 37.5518 193.349 37.7044 192.256 37.7807C191.162 37.857 190.094 37.8952 189.052 37.8952Z" fill="#154360"/>
<path d="M210.586 37.8952C207.09 37.8952 204.387 36.9923 202.48 35.1867C200.573 33.3684 199.619 30.7617 199.619 27.3666C199.619 24.0605 200.426 21.4919 202.041 19.6609C203.669 17.8298 205.958 16.9143 208.908 16.9143C211.794 16.9143 214.026 17.7599 215.603 19.4511C217.179 21.1423 217.968 23.6027 217.968 26.8325C217.968 27.7481 217.93 28.6191 217.853 29.4456H203.014V25.8598H212.894C212.894 24.4992 212.545 23.4565 211.845 22.7317C211.159 22.0069 210.192 21.6445 208.946 21.6445C207.598 21.6445 206.549 22.1277 205.799 23.0941C205.061 24.0478 204.693 25.4084 204.693 27.1758C204.693 29.0832 205.239 30.5328 206.333 31.5246C207.439 32.5164 209.01 33.0123 211.044 33.0123C211.96 33.0123 212.862 32.9678 213.753 32.8788C214.643 32.7771 215.552 32.6436 216.48 32.4783L216.976 37.3611C215.679 37.59 214.496 37.7362 213.428 37.7998C212.36 37.8634 211.413 37.8952 210.586 37.8952Z" fill="#154360"/>
</svg>
