<?xml version="1.0" standalone="no"?>
<!DOCTYPE svg PUBLIC "-//W3C//DTD SVG 20010904//EN"
 "http://www.w3.org/TR/2001/REC-SVG-20010904/DTD/svg10.dtd">
<svg version="1.0" xmlns="http://www.w3.org/2000/svg"
 width="896.000000pt" height="896.000000pt" viewBox="0 0 896.000000 896.000000"
 preserveAspectRatio="xMidYMid meet">
<metadata>
Created by potrace 1.14, written by Peter Selinger 2001-2017
</metadata>
<g transform="translate(0.000000,896.000000) scale(0.100000,-0.100000)"
fill="#000000" stroke="none">
<path d="M4710 6723 c-133 -4 -432 -32 -577 -53 -540 -79 -934 -242 -1183
-489 -239 -237 -342 -526 -327 -920 16 -409 171 -675 510 -873 80 -47 242
-116 342 -146 39 -12 380 -114 758 -227 378 -113 711 -216 740 -229 109 -48
157 -114 157 -214 0 -153 -149 -243 -475 -288 -205 -28 -762 -26 -1075 4 -129
13 -275 29 -325 37 -136 21 -564 70 -569 64 -3 -2 -7 -40 -10 -82 -4 -43 -31
-281 -62 -529 -30 -247 -53 -452 -51 -454 20 -20 421 -74 747 -101 316 -26
1154 -26 1395 0 273 30 453 65 742 146 202 58 430 189 577 334 255 254 375
637 322 1036 -52 395 -261 664 -671 868 -213 106 -228 111 -1475 459 -277 78
-333 106 -371 189 -45 96 -12 194 85 259 95 63 212 94 466 123 127 14 240 17
615 17 434 0 703 -11 1039 -43 52 -5 79 -4 82 3 5 16 114 963 114 996 0 24 -5
29 -32 34 -61 11 -432 45 -603 56 -93 6 -225 15 -293 20 -111 9 -376 10 -592
3z"/>
</g>
</svg>
